<svg xmlns="http://www.w3.org/2000/svg" viewBox="0 0 600 848" font-family="Arial, sans-serif">
  <rect x="0" y="0" width="600" height="848" fill="#ffffff" stroke="#1f2937" stroke-width="2"/>

  <!-- Scanner alignment squares (corners) -->
  <rect x="16" y="16" width="14" height="14" fill="#111827"/>
  <rect x="570" y="16" width="14" height="14" fill="#111827"/>
  <rect x="16" y="818" width="14" height="14" fill="#111827"/>
  <rect x="570" y="818" width="14" height="14" fill="#111827"/>

  <!-- Header -->
  <text x="300" y="46" text-anchor="middle" font-size="18" font-weight="bold" fill="#111827">SAMPLE OMR ANSWER SHEET</text>
  <text x="300" y="64" text-anchor="middle" font-size="10" fill="#6b7280">Vedic Neev — Printable Offline OMR Kit</text>

  <!-- Candidate details box -->
  <rect x="40" y="80" width="520" height="70" fill="none" stroke="#9ca3af" stroke-width="1"/>
  <text x="52" y="100" font-size="10" fill="#374151">Candidate Name</text>
  <line x1="52" y1="116" x2="290" y2="116" stroke="#9ca3af"/>
  <text x="310" y="100" font-size="10" fill="#374151">Roll Number</text>
  <g font-size="10" fill="#374151">
    <rect x="310" y="106" width="18" height="18" fill="none" stroke="#9ca3af"/>
    <rect x="330" y="106" width="18" height="18" fill="none" stroke="#9ca3af"/>
    <rect x="350" y="106" width="18" height="18" fill="none" stroke="#9ca3af"/>
    <rect x="370" y="106" width="18" height="18" fill="none" stroke="#9ca3af"/>
    <rect x="390" y="106" width="18" height="18" fill="none" stroke="#9ca3af"/>
    <rect x="410" y="106" width="18" height="18" fill="none" stroke="#9ca3af"/>
  </g>
  <text x="52" y="140" font-size="10" fill="#374151">Exam Board / Class</text>
  <line x1="150" y1="140" x2="290" y2="140" stroke="#9ca3af"/>
  <text x="310" y="140" font-size="10" fill="#374151">Date</text>
  <line x1="335" y1="140" x2="440" y2="140" stroke="#9ca3af"/>

  <!-- Instructions -->
  <text x="40" y="172" font-size="10" fill="#374151">Darken one bubble per question fully using a black/blue ballpoint pen. Do not tick or cross.</text>

  <!-- Legend -->
  <g font-size="10" fill="#374151">
    <circle cx="46" cy="192" r="5" fill="#111827"/>
    <text x="58" y="196">Correctly marked</text>
    <circle cx="176" cy="192" r="5" fill="none" stroke="#9ca3af"/>
    <text x="188" y="196">Unmarked</text>
  </g>

  <!-- Question grid: two columns of 10 rows -->
  <g font-size="11" fill="#111827">
    <!-- Column headers -->
    <text x="60" y="220" font-weight="bold">Q</text>
    <text x="90" y="220" font-weight="bold">A</text>
    <text x="118" y="220" font-weight="bold">B</text>
    <text x="146" y="220" font-weight="bold">C</text>
    <text x="174" y="220" font-weight="bold">D</text>

    <text x="360" y="220" font-weight="bold">Q</text>
    <text x="390" y="220" font-weight="bold">A</text>
    <text x="418" y="220" font-weight="bold">B</text>
    <text x="446" y="220" font-weight="bold">C</text>
    <text x="474" y="220" font-weight="bold">D</text>
  </g>

  <!-- Generated rows -->
  <g font-size="11" fill="#111827" stroke="#111827">
    <!-- Row template repeated via manual entries (1-10 left column, 11-20 right column) -->
    <!-- Left column -->
    <text x="44" y="244" stroke="none">1</text>
    <circle cx="90" cy="240" r="6" fill="none"/>
    <circle cx="118" cy="240" r="6" fill="#111827"/>
    <circle cx="146" cy="240" r="6" fill="none"/>
    <circle cx="174" cy="240" r="6" fill="none"/>

    <text x="44" y="270" stroke="none">2</text>
    <circle cx="90" cy="266" r="6" fill="none"/>
    <circle cx="118" cy="266" r="6" fill="none"/>
    <circle cx="146" cy="266" r="6" fill="none"/>
    <circle cx="174" cy="266" r="6" fill="#111827"/>

    <text x="44" y="296" stroke="none">3</text>
    <circle cx="90" cy="292" r="6" fill="#111827"/>
    <circle cx="118" cy="292" r="6" fill="none"/>
    <circle cx="146" cy="292" r="6" fill="none"/>
    <circle cx="174" cy="292" r="6" fill="none"/>

    <text x="44" y="322" stroke="none">4</text>
    <circle cx="90" cy="318" r="6" fill="none"/>
    <circle cx="118" cy="318" r="6" fill="none"/>
    <circle cx="146" cy="318" r="6" fill="#111827"/>
    <circle cx="174" cy="318" r="6" fill="none"/>

    <text x="44" y="348" stroke="none">5</text>
    <circle cx="90" cy="344" r="6" fill="none"/>
    <circle cx="118" cy="344" r="6" fill="none"/>
    <circle cx="146" cy="344" r="6" fill="none"/>
    <circle cx="174" cy="344" r="6" fill="none"/>

    <text x="44" y="374" stroke="none">6</text>
    <circle cx="90" cy="370" r="6" fill="none"/>
    <circle cx="118" cy="370" r="6" fill="none"/>
    <circle cx="146" cy="370" r="6" fill="none"/>
    <circle cx="174" cy="370" r="6" fill="none"/>

    <text x="44" y="400" stroke="none">7</text>
    <circle cx="90" cy="396" r="6" fill="none"/>
    <circle cx="118" cy="396" r="6" fill="none"/>
    <circle cx="146" cy="396" r="6" fill="none"/>
    <circle cx="174" cy="396" r="6" fill="none"/>

    <text x="44" y="426" stroke="none">8</text>
    <circle cx="90" cy="422" r="6" fill="none"/>
    <circle cx="118" cy="422" r="6" fill="none"/>
    <circle cx="146" cy="422" r="6" fill="none"/>
    <circle cx="174" cy="422" r="6" fill="none"/>

    <text x="44" y="452" stroke="none">9</text>
    <circle cx="90" cy="448" r="6" fill="none"/>
    <circle cx="118" cy="448" r="6" fill="none"/>
    <circle cx="146" cy="448" r="6" fill="none"/>
    <circle cx="174" cy="448" r="6" fill="none"/>

    <text x="40" y="478" stroke="none">10</text>
    <circle cx="90" cy="474" r="6" fill="none"/>
    <circle cx="118" cy="474" r="6" fill="none"/>
    <circle cx="146" cy="474" r="6" fill="none"/>
    <circle cx="174" cy="474" r="6" fill="none"/>

    <!-- Right column -->
    <text x="340" y="244" stroke="none">11</text>
    <circle cx="390" cy="240" r="6" fill="none"/>
    <circle cx="418" cy="240" r="6" fill="none"/>
    <circle cx="446" cy="240" r="6" fill="none"/>
    <circle cx="474" cy="240" r="6" fill="none"/>

    <text x="340" y="270" stroke="none">12</text>
    <circle cx="390" cy="266" r="6" fill="none"/>
    <circle cx="418" cy="266" r="6" fill="none"/>
    <circle cx="446" cy="266" r="6" fill="none"/>
    <circle cx="474" cy="266" r="6" fill="none"/>

    <text x="340" y="296" stroke="none">13</text>
    <circle cx="390" cy="292" r="6" fill="none"/>
    <circle cx="418" cy="292" r="6" fill="none"/>
    <circle cx="446" cy="292" r="6" fill="none"/>
    <circle cx="474" cy="292" r="6" fill="none"/>

    <text x="340" y="322" stroke="none">14</text>
    <circle cx="390" cy="318" r="6" fill="none"/>
    <circle cx="418" cy="318" r="6" fill="none"/>
    <circle cx="446" cy="318" r="6" fill="none"/>
    <circle cx="474" cy="318" r="6" fill="none"/>

    <text x="340" y="348" stroke="none">15</text>
    <circle cx="390" cy="344" r="6" fill="none"/>
    <circle cx="418" cy="344" r="6" fill="none"/>
    <circle cx="446" cy="344" r="6" fill="none"/>
    <circle cx="474" cy="344" r="6" fill="none"/>

    <text x="340" y="374" stroke="none">16</text>
    <circle cx="390" cy="370" r="6" fill="none"/>
    <circle cx="418" cy="370" r="6" fill="none"/>
    <circle cx="446" cy="370" r="6" fill="none"/>
    <circle cx="474" cy="370" r="6" fill="none"/>

    <text x="340" y="400" stroke="none">17</text>
    <circle cx="390" cy="396" r="6" fill="none"/>
    <circle cx="418" cy="396" r="6" fill="none"/>
    <circle cx="446" cy="396" r="6" fill="none"/>
    <circle cx="474" cy="396" r="6" fill="none"/>

    <text x="340" y="426" stroke="none">18</text>
    <circle cx="390" cy="422" r="6" fill="none"/>
    <circle cx="418" cy="422" r="6" fill="none"/>
    <circle cx="446" cy="422" r="6" fill="none"/>
    <circle cx="474" cy="422" r="6" fill="none"/>

    <text x="340" y="452" stroke="none">19</text>
    <circle cx="390" cy="448" r="6" fill="none"/>
    <circle cx="418" cy="448" r="6" fill="none"/>
    <circle cx="446" cy="448" r="6" fill="none"/>
    <circle cx="474" cy="448" r="6" fill="none"/>

    <text x="340" y="478" stroke="none">20</text>
    <circle cx="390" cy="474" r="6" fill="none"/>
    <circle cx="418" cy="474" r="6" fill="none"/>
    <circle cx="446" cy="474" r="6" fill="none"/>
    <circle cx="474" cy="474" r="6" fill="none"/>
  </g>

  <!-- Divider -->
  <line x1="300" y1="200" x2="300" y2="490" stroke="#d1d5db"/>
  <rect x="40" y="200" width="520" height="300" fill="none" stroke="#9ca3af" stroke-width="1"/>

  <!-- Footer note -->
  <text x="300" y="524" text-anchor="middle" font-size="10" fill="#6b7280">For illustration only — each printed booklet includes 100+ numbered questions across full sections.</text>
  <text x="300" y="540" text-anchor="middle" font-size="10" fill="#6b7280">Print on A4, use a dark ballpoint pen, and scan via the Vedic Neev OMR evaluator.</text>
</svg>
